<?xml version="1.0" encoding="UTF-8"?>
<svg xmlns="http://www.w3.org/2000/svg" viewBox="0 0 560 300" role="img">
  <title>Sketchnote: triển khai vật lý và cloud</title>
  <desc>Rack server phác tay, mũi tên tới cloud và sticky Physical view</desc>
  <rect width="560" height="300" fill="#fffdf5"/>
  <path d="M14 26 Q18 22 24 26 L536 20 Q542 24 540 30 L546 274 Q542 280 536 278 L24 284 Q18 280 20 274 Z" fill="#eff6ff" stroke="#1e40af" stroke-width="2.8" stroke-linejoin="round"/>
  <text x="280" y="50" text-anchor="middle" font-family="Georgia, serif" font-size="15" fill="#1e3a8a" transform="rotate(-0.5 280 50)">Kiến trúc “chạm” máy thật</text>
  <g transform="translate(100 78)">
    <rect x="0" y="0" width="140" height="180" rx="8" fill="#f1f5f9" stroke="#334155" stroke-width="3" stroke-linejoin="round"/>
    <line x1="12" y1="36" x2="128" y2="36" stroke="#64748b" stroke-width="2"/>
    <line x1="12" y1="72" x2="128" y2="72" stroke="#64748b" stroke-width="2"/>
    <line x1="12" y1="108" x2="128" y2="108" stroke="#64748b" stroke-width="2"/>
    <line x1="12" y1="144" x2="128" y2="144" stroke="#64748b" stroke-width="2"/>
    <circle cx="28" cy="54" r="4" fill="#22c55e"/>
    <circle cx="28" cy="90" r="4" fill="#22c55e"/>
    <circle cx="28" cy="126" r="4" fill="#eab308"/>
  </g>
  <text x="170" y="278" text-anchor="middle" font-family="Georgia, serif" font-size="11" fill="#475569">Rack / DC</text>
  <path d="M258 150 Q320 120 380 130" fill="none" stroke="#334155" stroke-width="2.8" stroke-linecap="round"/>
  <polygon points="372,122 392,132 378,138" fill="#334155"/>
  <path d="M380 100 Q400 80 430 88 Q450 72 480 88 Q510 84 520 112 Q532 130 518 150 Q508 168 480 164 Q460 178 430 168 Q400 176 388 152 Q368 138 380 100 Z" fill="#ffffff" stroke="#6366f1" stroke-width="2.5" stroke-linejoin="round"/>
  <text x="448" y="138" text-anchor="middle" font-family="Georgia, serif" font-size="12" fill="#3730a3">K8s?</text>
  <text x="448" y="156" text-anchor="middle" font-family="Georgia, serif" font-size="10" fill="#3730a3">Multi-region</text>
  <path d="M32 200 Q38 196 44 202 L168 208 Q174 214 170 220 L162 262 Q158 268 152 266 L34 258 Q28 252 30 246 Z" fill="#fecaca" stroke="#b91c1c" stroke-width="2" transform="rotate(-3 100 230)"/>
  <text x="100" y="228" text-anchor="middle" font-family="Georgia, serif" font-size="10" fill="#7f1d1d">Physical view</text>
  <text x="280" y="292" text-anchor="middle" font-family="Georgia, serif" font-size="9" fill="#64748b">Sketchnote gốc — CC BY-SA 4.0</text>
</svg>
