<?xml version="1.0" encoding="UTF-8"?>
<svg xmlns="http://www.w3.org/2000/svg" viewBox="0 0 560 300" role="img">
  <title>Sketchnote: NFR và SLO</title>
  <desc>Đồng hồ đo phác tay, log metrics trace</desc>
  <rect width="560" height="300" fill="#fffdf5"/>
  <path d="M16 24 Q20 20 26 24 L544 18 Q550 22 548 28 L554 276 Q550 282 544 280 L22 286 Q16 282 18 276 Z" fill="#faf5ff" stroke="#7e22ce" stroke-width="2.8" stroke-linejoin="round"/>
  <text x="280" y="48" text-anchor="middle" font-family="Georgia, serif" font-size="15" fill="#581c87" transform="rotate(-0.6 280 48)">NFR phải đo được</text>
  <path d="M160 220 A 72 72 0 0 1 304 220" fill="none" stroke="#cbd5e1" stroke-width="10" stroke-linecap="round"/>
  <path d="M160 220 A 72 72 0 0 1 268 152" fill="none" stroke="#22c55e" stroke-width="10" stroke-linecap="round"/>
  <line x1="232" y1="220" x2="260" y2="170" stroke="#334155" stroke-width="3" stroke-linecap="round"/>
  <circle cx="232" cy="220" r="8" fill="#334155"/>
  <text x="232" y="248" text-anchor="middle" font-family="Georgia, serif" font-size="11" fill="#475569">p95 &lt; 800ms?</text>
  <rect x="360" y="88" width="56" height="72" rx="6" fill="#fee2e2" stroke="#dc2626" stroke-width="2.2" transform="rotate(-2 388 124)"/>
  <text x="388" y="118" text-anchor="middle" font-family="Georgia, serif" font-size="9" fill="#991b1b">LOG</text>
  <rect x="420" y="96" width="56" height="72" rx="6" fill="#dbeafe" stroke="#2563eb" stroke-width="2.2"/>
  <text x="448" y="126" text-anchor="middle" font-family="Georgia, serif" font-size="9" fill="#1e40af">METRIC</text>
  <rect x="480" y="92" width="56" height="72" rx="6" fill="#dcfce7" stroke="#16a34a" stroke-width="2.2" transform="rotate(2 508 128)"/>
  <text x="508" y="122" text-anchor="middle" font-family="Georgia, serif" font-size="8" fill="#166534">TRACE</text>
  <text x="448" y="200" text-anchor="middle" font-family="Georgia, serif" font-size="12" fill="#4c1d95">Observability</text>
  <path d="M48 100 Q44 96 52 92 L140 88 Q148 94 144 102 L138 132 Q134 140 126 136 L50 142 Q42 138 46 128 Z" fill="#fef08a" stroke="#ca8a04" stroke-width="2"/>
  <text x="96" y="118" text-anchor="middle" font-family="Georgia, serif" font-size="10" fill="#713f12">Alert!</text>
  <text x="280" y="292" text-anchor="middle" font-family="Georgia, serif" font-size="9" fill="#64748b">Sketchnote gốc — CC BY-SA 4.0</text>
</svg>
