<?xml version="1.0" encoding="UTF-8"?>
<svg xmlns="http://www.w3.org/2000/svg" viewBox="0 0 560 320" role="img">
  <title>Sketchnote: e-commerce end-to-end</title>
  <desc>Giỏ hàng, thanh toán, kho phác tay nối mũi tên</desc>
  <rect width="560" height="320" fill="#fffdf5"/>
  <path d="M18 22 Q22 18 28 22 L542 16 Q548 20 546 26 L552 300 Q548 306 542 304 L26 310 Q20 306 22 300 Z" fill="#fdf2f8" stroke="#be185d" stroke-width="2.8" stroke-linejoin="round"/>
  <text x="280" y="46" text-anchor="middle" font-family="Georgia, serif" font-size="15" fill="#9d174d" transform="rotate(0.3 280 46)">Từ catalog → kho → ship</text>
  <path d="M72 140 L88 200h120l16-60H92l-8-32H56l8 12h16z" fill="none" stroke="#334155" stroke-width="2.8" stroke-linejoin="round"/>
  <circle cx="108" cy="212" r="10" fill="none" stroke="#334155" stroke-width="2"/>
  <circle cx="188" cy="212" r="10" fill="none" stroke="#334155" stroke-width="2"/>
  <text x="130" y="128" text-anchor="middle" font-family="Georgia, serif" font-size="11" fill="#831843">Catalog</text>
  <path d="M210 170h56" fill="none" stroke="#334155" stroke-width="2.5" stroke-linecap="round"/>
  <polygon points="258,162 276,170 258,178" fill="#334155"/>
  <rect x="286" y="140" width="88" height="64" rx="8" fill="#dbeafe" stroke="#1d4ed8" stroke-width="2.5" transform="rotate(-2 330 172)"/>
  <text x="330" y="168" text-anchor="middle" font-family="Georgia, serif" font-size="11" fill="#1e40af">Pay</text>
  <text x="330" y="186" text-anchor="middle" font-family="Georgia, serif" font-size="9" fill="#1e40af">PCI zone</text>
  <path d="M384 172h48" fill="none" stroke="#334155" stroke-width="2.5"/>
  <polygon points="424,164 442,172 424,180" fill="#334155"/>
  <rect x="448" y="132" width="72" height="72" rx="6" fill="#ffedd5" stroke="#c2410c" stroke-width="2.5"/>
  <text x="484" y="168" text-anchor="middle" font-family="Georgia, serif" font-size="10" fill="#9a3412">Stock</text>
  <text x="484" y="186" text-anchor="middle" font-family="Georgia, serif" font-size="9" fill="#9a3412">queue</text>
  <path d="M120 260l180-20 120 8v24H120Z" fill="#e0f2fe" stroke="#0369a1" stroke-width="2.2" stroke-linejoin="round"/>
  <text x="270" y="268" text-anchor="middle" font-family="Georgia, serif" font-size="11" fill="#0c4a6e">Shipping / notify</text>
  <path d="M32 72 Q28 68 36 64 L120 58 Q128 64 124 72 L118 100 Q114 108 106 104 L34 110 Q26 106 30 96 Z" fill="#fecaca" stroke="#dc2626" stroke-width="2"/>
  <text x="76" y="88" text-anchor="middle" font-family="Georgia, serif" font-size="10" fill="#991b1b">flash sale!</text>
  <text x="280" y="308" text-anchor="middle" font-family="Georgia, serif" font-size="9" fill="#64748b">Sketchnote gốc — CC BY-SA 4.0</text>
</svg>
