<?xml version="1.0" encoding="UTF-8"?>
<svg xmlns="http://www.w3.org/2000/svg" viewBox="0 0 520 200" role="img">
  <title>Quality scenario</title>
  <desc>Stimulus den measure</desc>
  <rect width="520" height="200" fill="#fffdf5"/>
  <path d="M8 12 L512 8 L518 188 L10 192 Z" fill="#ecfeff" stroke="#0e7490" stroke-width="2.2" stroke-linejoin="round"/>
  <text x="260" y="34" text-anchor="middle" font-family="Georgia, serif" font-size="13" fill="#155e75">Kịch bản chất lượng: stimulus → response → measure</text>
  <rect x="36" y="72" width="88" height="44" rx="6" fill="#a5f3fc" stroke="#0891b2" stroke-width="2"/>
  <text x="80" y="100" text-anchor="middle" font-family="Georgia, serif" font-size="10" fill="#155e75">Stimulus</text>
  <rect x="150" y="74" width="88" height="42" rx="6" fill="#a5f3fc" stroke="#0891b2" stroke-width="2"/>
  <text x="194" y="100" text-anchor="middle" font-family="Georgia, serif" font-size="9" fill="#155e75">Environment</text>
  <rect x="264" y="76" width="92" height="40" rx="6" fill="#cffafe" stroke="#0e7490" stroke-width="2"/>
  <text x="310" y="100" text-anchor="middle" font-family="Georgia, serif" font-size="9" fill="#155e75">Artifact</text>
  <rect x="386" y="72" width="100" height="48" rx="6" fill="#99f6e4" stroke="#0d9488" stroke-width="2"/>
  <text x="436" y="94" text-anchor="middle" font-family="Georgia, serif" font-size="9" fill="#134e4a">Response</text>
  <text x="436" y="108" text-anchor="middle" font-family="Georgia, serif" font-size="8" fill="#134e4a">+ measure</text>
  <path d="M124 94h22M238 94h22M356 94h26" fill="none" stroke="#334155" stroke-width="2"/>
  <polygon points="142,88 152,94 142,100" fill="#334155"/>
  <polygon points="256,88 266,94 256,100" fill="#334155"/>
  <polygon points="376,88 386,94 376,100" fill="#334155"/>
  <text x="260" y="164" text-anchor="middle" font-family="Georgia, serif" font-size="9" fill="#64748b">Sketchnote gốc (CC BY-SA 4.0)</text>
</svg>
