<?xml version="1.0" encoding="UTF-8"?>
<svg xmlns="http://www.w3.org/2000/svg" viewBox="0 0 720 420" font-family="Georgia, serif" font-size="13">
  <title>4+1 architectural view model — overview</title>
  <rect width="720" height="420" fill="#faf9f7"/>
  <text x="360" y="28" text-anchor="middle" font-size="16" font-weight="bold">4+1 View Model (Kruchten)</text>
  <ellipse cx="360" cy="210" rx="100" ry="44" fill="#e8f0fe" stroke="#1a73e8" stroke-width="2"/>
  <text x="360" y="208" text-anchor="middle" font-weight="bold">Use-case</text>
  <text x="360" y="226" text-anchor="middle">Scenarios (+1)</text>
  <rect x="40" y="80" width="120" height="56" rx="6" fill="#fff" stroke="#333"/>
  <text x="100" y="108" text-anchor="middle">Logical</text>
  <text x="100" y="126" text-anchor="middle" font-size="11">view</text>
  <rect x="560" y="80" width="120" height="56" rx="6" fill="#fff" stroke="#333"/>
  <text x="620" y="108" text-anchor="middle">Process</text>
  <text x="620" y="126" text-anchor="middle" font-size="11">view</text>
  <rect x="40" y="300" width="120" height="56" rx="6" fill="#fff" stroke="#333"/>
  <text x="100" y="328" text-anchor="middle">Development</text>
  <text x="100" y="346" text-anchor="middle" font-size="11">view</text>
  <rect x="560" y="300" width="120" height="56" rx="6" fill="#fff" stroke="#333"/>
  <text x="620" y="328" text-anchor="middle">Physical</text>
  <text x="620" y="346" text-anchor="middle" font-size="11">view</text>
  <line x1="160" y1="108" x2="270" y2="185" stroke="#666" stroke-width="1.5"/>
  <line x1="560" y1="108" x2="450" y2="185" stroke="#666" stroke-width="1.5"/>
  <line x1="160" y1="328" x2="270" y2="235" stroke="#666" stroke-width="1.5"/>
  <line x1="560" y1="328" x2="450" y2="235" stroke="#666" stroke-width="1.5"/>
  <text x="360" y="400" text-anchor="middle" font-size="10" fill="#555">Conceptual diagram — not to scale. CC BY-SA 4.0.</text>
</svg>
